<?xml version="1.0" encoding="utf-8"?>
<!-- Generator: Adobe Illustrator 23.1.0, SVG Export Plug-In . SVG Version: 6.00 Build 0)  -->
<svg version="1.1" id="Слой_1" xmlns="http://www.w3.org/2000/svg" xmlns:xlink="http://www.w3.org/1999/xlink" x="0px" y="0px"
	 viewBox="0 0 500 375" style="enable-background:new 0 0 500 375;" xml:space="preserve">
<style type="text/css">
	.st0{display:none;}
	.st1{fill:#FFFFFF;}
	.st2{fill:#9F4641;}
	.st3{fill:#C9A763;}
	.st4{fill:#40645C;}
	.st5{fill:#2C3350;}
	.st6{opacity:0.8;}
	.st7{fill:#565C73;}
	.st8{fill:#4C7E77;}
	.st9{fill:none;stroke:#E7B142;stroke-width:4;stroke-linecap:round;stroke-linejoin:round;}
	.st10{fill:none;stroke:#E7B142;stroke-width:4;stroke-linecap:round;stroke-linejoin:round;stroke-dasharray:0,5.7654;}
	.st11{fill:none;stroke:#E7B142;stroke-width:4;stroke-linecap:round;stroke-linejoin:round;stroke-dasharray:0,6.2072;}
	.st12{fill:none;stroke:#E7B142;stroke-width:4;stroke-linecap:round;stroke-linejoin:round;stroke-dasharray:0,6.157;}
	.st13{fill:#F5E0B3;}
	.st14{fill:#395F59;}
	.st15{fill:#A3E0D7;}
</style>
<rect class="st0" width="500" height="375"/>
<g id="LOGO">
	<g>
		<path class="st1" d="M57,248.9c3.9,1.7,7.1,4.3,9.5,7.9c2.4,3.6,3.6,7.7,3.6,12.2c0,6-2.1,11.1-6.2,15.3c-4.2,4.3-9.2,6.4-15,6.4
			c-2.3,0-4.5-0.4-6.6-1.1v-68.2c0.4-0.3,0.8-0.5,1.3-0.6c1.8-0.7,3.5-1.1,5.4-1.1c4,0,7.3,1.4,10.1,4.3c2.8,2.9,4.1,6.3,4.1,10.4
			c0,2.7-0.7,5.2-2,7.6c-1.4,2.3-3.2,4.1-5.6,5.3c-0.5,0.3-0.9,0.5-1.4,0.7C55.1,248.1,56,248.5,57,248.9z M45.5,222v25.2h3.3
			c3,0,5.6-1.3,7.7-3.8c2.1-2.5,3.2-5.6,3.2-9.1c0-3.6-1.1-6.6-3.2-9.1c-2.1-2.5-4.7-3.8-7.7-3.8C47.7,221.4,46.5,221.6,45.5,222z
			 M48.8,289c4.9,0,9.2-2,12.7-5.9s5.3-8.6,5.3-14.2c0-5.5-1.8-10.3-5.3-14.2c-3.5-3.9-7.7-5.9-12.7-5.9h-3.3v39.7
			C46.5,288.9,47.7,289,48.8,289z"/>
		<path class="st1" d="M78.6,287.9h15.1l1.4,1.7H75.2v-68.8H95l-1.4,1.7h-15v23.7h13.2l-1.2,1.7h-12V287.9z"/>
		<path class="st1" d="M118.6,287.9l1.4,1.7h-19.8v-68.8h3.3v67.1H118.6z"/>
		<path class="st1" d="M129.3,247.9l23.6,41.7h-3.8l-20.7-36.5v36.5h-3.3v-68.8h3.3v25.5l19.5-25.5h2L129.3,247.9z"/>
		<path class="st1" d="M178.1,219.7l18.3,69.9h-3.3l-6.7-25.8h-19.9l-6.7,25.8H158l17.5-66.9L178.1,219.7z M167,262.1h18.9
			l-9.5-36.2L167,262.1z"/>
		<path class="st1" d="M245.4,287.9l1.4,1.7H227v-68.8h3.3v67.1H245.4z"/>
		<path class="st1" d="M257.6,224.5c5.4-3.2,11.2-4.8,17.5-4.8s12.1,1.6,17.4,4.8s9.6,7.5,12.7,12.9s4.7,11.4,4.7,17.8
			s-1.6,12.3-4.7,17.8c-3.1,5.4-7.3,9.8-12.7,12.9c-5.3,3.2-11.1,4.8-17.4,4.8s-12.1-1.6-17.5-4.8c-5.4-3.2-9.6-7.5-12.7-12.9
			c-3.1-5.4-4.6-11.4-4.6-17.8c0-6.4,1.5-12.3,4.6-17.8C248,232,252.2,227.6,257.6,224.5z M284.1,287.3c5.5-1.4,10.3-4.1,14.3-8.2
			s6.7-8.9,8-14.6c1.3-5.6,1.2-11.3-0.4-17s-4.5-10.7-8.8-15s-9.2-7.3-14.7-9c-5.6-1.6-11.1-1.8-16.6-0.4
			c-5.5,1.4-10.3,4.1-14.3,8.2c-4,4.1-6.7,8.9-8,14.6c-1.3,5.6-1.2,11.3,0.4,17c1.6,5.7,4.5,10.7,8.7,15c4.2,4.3,9.1,7.3,14.7,9
			C273.1,288.5,278.6,288.6,284.1,287.3z"/>
		<path class="st1" d="M341.1,220.8h1.6v55.8c0,3.9-1.4,7.3-4.1,10c-2.7,2.8-6,4.1-9.7,4.1c-2.5,0-4.8-0.6-6.9-1.9s-3.9-3-5.1-5.2
			c-1.3-2.2-1.9-4.6-1.9-7.2v-55.7h3.3v55.7c0,3.5,1.1,6.4,3.4,8.9c2.2,2.5,4.9,3.7,8,3.7c3.2,0,5.9-1.2,8.1-3.6s3.3-5.4,3.4-8.8
			L341.1,220.8L341.1,220.8z"/>
		<path class="st1" d="M374,220.8h1.6v68.8h-1.1l-0.5-1.2l-24.6-57.9v59.1h-1.7v-68.8h1.1l0.6,1.2l24.6,57.9V220.8z"/>
		<path class="st1" d="M423.5,269.1l-1.5-1.7h15.9v14.9l-1.2,1c-2.3,1.8-4.7,3.3-7.2,4.4c-4.4,2-9.1,3-14,3c-6.2,0-12-1.6-17.4-4.8
			c-5.4-3.2-9.6-7.5-12.7-12.9s-4.6-11.4-4.6-17.8c0-4.8,0.9-9.4,2.7-13.7c1.8-4.4,4.3-8.1,7.4-11.3s6.8-5.7,11.1-7.6
			c4.3-1.9,8.8-2.8,13.5-2.8c8.5,0,16,2.8,22.4,8.4l-2.1,2.6c-6.4-5.7-13.9-8.5-22.3-8.4s-15.5,3.1-21.4,9c-4,4.1-6.7,9-8,14.6
			s-1.2,11.3,0.4,17s4.5,10.7,8.7,15.1c5.2,5.2,11.3,8.5,18.3,9.7s13.5,0.3,19.4-2.8c1.2-0.5,2.4-1.2,3.7-2.1v-13.6h-11.1V269.1z"/>
		<path class="st1" d="M446.4,287.9h15.1l1.4,1.7h-19.8v-68.8h19.8l-1.4,1.7h-15.1v23.7h13.2l-1.2,1.7h-12V287.9z"/>
	</g>
	<path id="BelkaLogoVector" class="st1" d="M270.6,195.7c0,0,59-15,24-109.2c-0.1-0.1-0.3-0.1-0.3,0l-5.1,15.6
		c-0.1,0.3-0.5,0.3-0.6,0c-6.4-34,16.5-52.1,16.5-52.1c-55.6-7.2-62.5,33.4-63,37.3c0,0.2,0,0.4,0,0.6c0.8,22.3,26.9,39.5,26.9,39.5
		c24.6,21.8,10,45.1,10,45.1c5.4-23.3-11.5-35.3-11.5-35.3l-33.1-18.8c-9.2-9-12.3-18.8-12.3-18.8c-8.5,0-9.2,9.8-9.2,9.8
		c-18.5,3.8-16.9,21.8-16.9,21.8c5.4,7.5,25.5,1.3,25.5,1.3c5.4,8.4-9.3,12.2-13.3,14.2c-6.5,3.3-4.1,6.1-4.1,6.1
		c1.5,7.5,21.3,1,21.3,1c26.4-4.1,18.2,13.4,18.2,13.4c-6.9-22.5-44.5-1.1-15.4,20.3c-6.9,0.8-6.2,8.3-6.2,8.3
		c-21.5,0-39.2,3.8-39.2,3.8H319C305.9,195.7,270.6,195.7,270.6,195.7z"/>
</g>
<g id="HappyNewYear">
	<g>
		<path class="st2" d="M225.8,80.7c-2.3-0.8-5.1-0.7-7.4-0.1c-5,1.3-8.7,5.5-11.7,9.5c-2.2,2.9-4.1,6.1-5.5,9.5
			c-0.4,0.8-3,9.9-2.9,9.9l0.6-0.1c10.2-1.4,20.4-2.7,30.6-4.1c0.4-3.3-1.8-6.3-3.8-9.1c-2.1-3-6.2-8.5,0.6-8.7
			c1.8-0.1,3.6,0.8,4.8,2.1c0.1-2.1-0.3-4.3-1.5-6.1C228.7,82.1,227.3,81.2,225.8,80.7z"/>
		<path class="st3" d="M198.9,107.4c-1.2,0.7-1.8,2.1-1.9,3.5c-0.1,1.4,0.3,2.7,0.6,4.1c0.1,0.4,0.2,0.8,0.5,1s0.6,0.2,1,0.3
			c1.4,0.1,2.8-0.1,4.3-0.3c7.6-1.1,15.2-2.2,22.7-3.2c1.7-0.2,3.6-0.6,4.8-1.8c1.1-1.1,1.5-3,0.9-4.5s-2.2-2.5-3.8-2.5L198.9,107.4
			z"/>
		<path class="st3" d="M236.3,89.1c-0.9-0.8-2-1.2-3.2-1c-0.7,0.1-1.4,0.5-1.9,1c-0.4,0.1-0.7,0.3-0.9,0.7c-1.1,1.4-1.1,3.5-0.1,5
			c0.7,1,1.8,1.6,2.9,1.8c1.4,0.2,2.4-0.4,3.5-1.3c0.6-0.5,1-1.1,1.2-1.9c0.1-0.5,0.1-1,0-1.5C237.7,90.8,237.1,89.8,236.3,89.1z"/>
	</g>
	<g>
		<path class="st1" d="M79.9,137.4c1.1-1.8,2.8-3.3,4.9-4c1-0.4,1.9-0.3,2.9-0.5c0.9-0.2,1.8-0.7,2.8-0.9c3.9-0.7,8.2,0.7,11.1,3.3
			c3.3,3,5.1,7.7,4.7,12.4c-0.1,1.7-0.5,3.2-1.2,4.4c-0.9,1.7-2.5,3.1-4.7,4.3c-2.3,1.2-5,1.9-7.8,1.9c-4.7,0-9.3-1.9-11.9-6
			c-0.8-1.3-1.4-2.8-1.8-4.5C77.8,143.9,78.2,140.2,79.9,137.4z"/>
		<path class="st1" d="M72.8,161.7c3.8-3.6,9.6-5.5,14.2-4.5c1,0.2,2.2,0.4,3.6,0.4l0,0c0.8,0,1.5,0.1,2.3,0.1c2.9,0.1,6,0.2,9,1.4
			c4.5,1.8,8.3,4.6,11,8.3c4.1,5.5,5.7,12.5,4.5,19.3c-1.1,6.4-4.7,11.8-10,15.3c-2.4,1.6-5.3,2.6-8.9,3.2c-1.9,0.3-3.7,0.5-5.6,0.5
			c-6.5,0-12.7-2-17.5-5.6c-5.4-4.2-9-11.4-9.4-19.4C65.7,173,68.2,166.1,72.8,161.7z"/>
		<path class="st4" d="M79.6,139.6c7.6-1.5,15.2-2.4,22.8-3.2c1.5-0.1,4.7-0.2,5.2-1.9c0.4-1.4-0.8-2.9-2-3.4
			c-1.7-0.7-3.6-0.4-5.5-0.3c-0.8,0-1.7,0-2.2-0.7c-0.3-0.4-0.4-0.9-0.4-1.4c-0.6-4.7-1.1-9.4-1.7-14.1c-0.1-0.4-0.1-0.9-0.4-1.2
			c-0.3-0.3-0.7-0.3-1.1-0.3c-6.8-0.6-13.6-0.3-20.3,0.9c-0.6,0.1-1.2,0.3-1.5,0.8c-0.2,0.4-0.1,0.8,0,1.2c1.2,5.7,3,11.3,5.5,16.6
			c0.3,0.6,0.5,1.5,0,1.9c-0.4,0.3-0.8,0.2-1.3,0.1c-2,0-3.3,3-1.8,4.4C76,140.2,77.9,140,79.6,139.6z"/>
		<g>
			<path class="st2" d="M86.6,162.3c-3.1,0.1-6.5,0-9-1.8c-1.3-0.9-2.3-2.6-1.7-4.1c0.2-0.4,0.6-0.8,0.9-1.2
				c0.4-0.5,0.7-1.2,1.2-1.6c1.6-1.6,4.3-0.8,6.4-0.1c3.4,1.1,6.9,1.8,10.4,2c1.7,0.1,5.7-0.6,6.9,0.9c0.7,0.8,0.6,2.7,0.1,3.5
				c-0.9,1.5-3.1,1.3-4.8,1.5C93.6,161.9,90.1,162.2,86.6,162.3z"/>
			<path class="st2" d="M84.2,184.6c-0.2,0.6-0.6,1.2-1.2,1.2c-0.8,0-1.2-0.8-1.8-1.3c-0.7-0.5-1.8-0.4-2.6-0.1
				c-0.9,0.3-1.7,0.8-2.6,0.8s-1.9-0.5-2-1.5c0-1.1,1.3-1.7,2.3-2.3c1.6-1.1,2.3-3,2.9-4.9c1.6-5.3,2.5-10.9,5.7-15.4
				c0.2-0.3,0.5-0.7,0.9-0.8c0.4-0.2,0.9,0,1.3,0.1c1,0.3,2,0.6,2.9,1c-1.1,3.8-2.6,7.3-3.2,11.4C86.1,176.8,85.8,180.9,84.2,184.6z
				"/>
			<path class="st2" d="M76.5,174.7c-0.1,0.6-0.4,1.2-1,1.3c-0.2,0-0.4-0.1-0.6-0.2c-1.3-0.7-2.5-1.7-3.3-2.9
				c-0.2-0.3-0.3-0.5-0.3-0.8c0-0.4,0.3-0.6,0.6-0.9c2.8-2.4,5.4-5.1,7.7-8c1.2-1.6,2.5-4.1,4.4-2.7c2.2,1.5,0.2,3-1,4.3
				C80.2,167.6,77.5,170.8,76.5,174.7z"/>
		</g>
		<path class="st2" d="M114.6,150.8c0.3,0.2,0.7,0.5,0.6,0.9c0,0.3-0.2,0.5-0.5,0.6c-1,0.6-2.3,0.4-3.5,0.2c-3.5-0.8-7-1.5-10.5-2.3
			c-0.6-0.1-1.2-0.3-1.5-0.7c-0.4-0.4-0.4-1-0.5-1.5c-0.1-0.9-0.2-1.8,0-2.7C100,140.7,112.2,149.2,114.6,150.8z"/>
		<circle cx="89" cy="142.8" r="1.5"/>
		<circle cx="100.2" cy="140.8" r="1.5"/>
	</g>
	<g>
		<path class="st3" d="M429,176.7c-0.1-0.2-0.4-0.4-0.7-0.3c-10.7,3-21.5,6.1-32.2,9.1c-0.1,0-0.2,0.1-0.3,0.2l0,0l0,0
			c-0.1,0.1-0.2,0.3-0.1,0.5c2.1,8.3,4.6,16.4,7.7,24.4c0.1,0.3,0.4,0.5,0.7,0.4c10.8-1.9,21.3-4.9,31.5-9.1
			c0.3-0.1,0.3-0.4,0.3-0.7C434.3,192.9,432.8,184.4,429,176.7z"/>
		<path class="st2" d="M408.8,181.3l7,27.8l7.8-2l-8.4-27.9c-0.2-0.7-1-1.1-1.7-0.8l-3.9,1.4C408.9,180,408.6,180.6,408.8,181.3z"/>
		<polygon class="st2" points="397,195.7 398.3,200.9 434.5,191 433.2,185.7 		"/>
		<path class="st2" d="M418.8,167.4c-2.3,0-4.2,1.3-5.6,3.1c-0.8,1-1.3,2.2-1.7,3.4c-0.3,0.8-0.5,1.7-0.8,2.5
			c-0.1,0.2-0.1,0.7-0.2,1.1c-1-1-2.4-1.8-3.5-2.3c-2.6-1.2-5.8-1.6-8.6-0.7c-2.2,0.7-4.2,2.6-3.9,5.1c0.5,3.4,4.3,3.3,6.9,3.2
			c1.8-0.1,3.7-0.3,5.5-0.6c1.4-0.3,3.2-0.5,4.5-1.3c3.2-1.3,6.8-2.8,9.7-4.6c1.9-1.2,3.1-3.3,2.5-5.5
			C423.1,168.6,420.9,167.4,418.8,167.4z M405.2,179.6c-1.8,0.3-3.9,0.6-5.8,0.3c-0.8-0.1-2.3-0.1-2-1.3c0.2-1,1.4-1.4,2.3-1.6
			c1.3-0.4,2.8-0.4,4.2-0.2c1.5,0.2,3,0.7,4.4,1.4c0.3,0.2,0.7,0.4,1,0.6C408,179.3,406.1,179.5,405.2,179.6z M421,173.9
			c-1.3,1.3-3.6,2-5.2,2.8c-0.8,0.4-1.7,0.8-2.5,1.2c0.4-1.7,0.7-3.5,1.6-5.1c0.8-1.5,2.1-2.9,3.9-3
			C421,169.6,422.8,171.9,421,173.9z"/>
	</g>
	<g>
		<g>
			<g>
				<path class="st5" d="M379.2,175.4c0,0-6.1,25.4-6.2,27.3c-0.3,4.8,19.9,5,20.1,1.1c0.1-1.7-3.4-27.8-3.4-27.8"/>
			</g>
			<g class="st6">
				<g>
					<path class="st7" d="M384.2,185.4c0.4,1.5,0.5,2.9,0.6,4.3c0.1,1.4,0.1,2.9,0,4.3c-0.1,1.4-0.2,2.9-0.4,4.3
						c-0.2,1.4-0.5,2.8-1,4.2c-0.4-1.5-0.5-2.9-0.6-4.3c-0.1-1.4-0.1-2.9,0-4.3c0.1-1.4,0.2-2.9,0.4-4.3
						C383.5,188.3,383.8,186.8,384.2,185.4z"/>
				</g>
				<g>
					<path class="st7" d="M380.5,185.2c0.2,1.4,0.2,2.7,0.1,4c0,1.3-0.1,2.6-0.3,4c-0.2,1.3-0.5,2.6-0.9,3.9
						c-0.4,1.3-0.9,2.6-1.7,3.7c0-1.4,0-2.7,0.1-4s0.2-2.6,0.4-3.9c0.2-1.3,0.4-2.6,0.8-3.9C379.5,187.7,379.9,186.5,380.5,185.2z"
						/>
				</g>
				<g>
					<path class="st7" d="M387.9,186.3c0.5,1.3,0.8,2.6,1,3.9c0.2,1.3,0.3,2.6,0.4,3.9c0.1,1.3,0,2.6,0,4c-0.1,1.3-0.2,2.7-0.6,4
						c-0.5-1.3-0.8-2.6-1-3.9c-0.2-1.3-0.3-2.6-0.4-4c-0.1-1.3,0-2.7,0-4C387.4,189,387.6,187.7,387.9,186.3z"/>
				</g>
			</g>
		</g>
		<g>
			<path class="st8" d="M384.1,182.7c20.6,1.6,43.9,1.2,59.8-2.2c-2.9-3.8-6.9-10.1-9.1-15.2c2.1-0.4,4.8-1.8,6.8-2.2
				c-4.6-8.1-8.7-13.3-13.9-23c3.6-0.3,6.8-0.7,9.9-2.1c-6.2-9.2-10.2-14.4-14.9-23.1c2.6-0.9,5.3-0.7,9.2-1.8
				c-5.2-10.8-11.5-20.6-18.2-32c3.1-0.4,6.2-0.7,9.4-2.1c-4.7-7.6-10.8-16.1-17.7-25.7c2.6,0.1,5.2-0.2,7.8-0.6
				c-7.3-8.9-14-21.8-20.2-30h0.1c-7.1,7.5-15.2,19.5-23.5,27.6c2.5,0.7,5.1,1.3,7.7,1.5c-7.9,8.7-14.9,16.5-20.4,23.5
				c3,1.7,6.1,2.4,9.1,3.1c-7.9,10.6-15.2,19.7-21.6,29.8c3.8,1.4,6.5,1.6,9,2.8c-5.6,8.1-10.2,12.8-17.4,21.2
				c3,1.7,6.1,2.4,9.6,3.2c-6.2,9.1-10.8,13.7-16.3,21.3c2,0.6,4.5,2.4,6.5,3c-2.8,4.9-7.5,10.6-10.8,14.1
				C340.4,179,363.5,182,384.1,182.7"/>
		</g>
		<g>
			<g>
				<g>
					<path class="st5" d="M394.2,5.5l4.8,15.4c1,3.2-0.8,6.6-4,7.6s-6.6-0.8-7.6-4c-0.5-1.4-0.3-3,0.2-4.2L394.2,5.5z"/>
				</g>
				<g>
					<path class="st5" d="M398.9,22.8l-6.5,14.7l-4.8-15.4c-1-3.2,0.8-6.6,4-7.6s6.6,0.8,7.6,4C399.6,20,399.4,21.5,398.9,22.8z"/>
				</g>
				<g>
					<path class="st5" d="M377.3,20.6l15.4-4.8c3.2-1,6.6,0.8,7.6,4s-0.8,6.6-4,7.6c-1.4,0.5-3,0.3-4.2-0.2L377.3,20.6z"/>
				</g>
				<g>
					<path class="st5" d="M394.5,15.9l14.7,6.5l-15.4,4.8c-3.2,1-6.6-0.8-7.6-4s0.8-6.6,4-7.6C391.7,15.2,393.2,15.4,394.5,15.9z"/>
				</g>
			</g>
			<g>
				<g>
					<path class="st5" d="M382.6,9.6l12.3,9.2c1.4,1,1.7,3,0.6,4.3s-3,1.7-4.3,0.6c-0.3-0.3-0.6-0.6-0.8-0.9L382.6,9.6z"/>
				</g>
				<g>
					<path class="st5" d="M396.2,20.2l7.8,13.3l-12.3-9.2c-1.4-1-1.7-3-0.6-4.3c1-1.4,3-1.7,4.3-0.6C395.7,19.5,396,19.8,396.2,20.2
						z"/>
				</g>
				<g>
					<path class="st5" d="M381.3,32.2l9.2-12.3c1-1.4,3-1.7,4.3-0.6c1.4,1,1.7,3,0.6,4.3c-0.3,0.3-0.6,0.6-0.9,0.8L381.3,32.2z"/>
				</g>
				<g>
					<path class="st5" d="M391.9,18.6l13.3-7.8L396,23.2c-1,1.4-3,1.7-4.3,0.6c-1.4-1-1.7-3-0.6-4.3
						C391.3,19.1,391.6,18.8,391.9,18.6z"/>
				</g>
			</g>
		</g>
		<g>
			<g>
				<g>
					<g>
						<line class="st9" x1="370.4" y1="58.3" x2="370.4" y2="58.3"/>
						<path class="st10" d="M375,61.9c10,6.9,24.7,12.2,41,10.7"/>
						<line class="st9" x1="418.9" y1="72.2" x2="418.9" y2="72.2"/>
					</g>
				</g>
				<g>
					<g>
						<line class="st9" x1="423.1" y1="96.9" x2="423.1" y2="96.9"/>
						<path class="st11" d="M418.2,100.7c-15.8,10.8-45.8,22.2-67.6,17.8"/>
						<line class="st9" x1="347.6" y1="117.7" x2="347.6" y2="117.7"/>
					</g>
				</g>
				<g>
					<g>
						<line class="st9" x1="340.4" y1="141.5" x2="340.4" y2="141.5"/>
						<path class="st12" d="M344.7,145.8c18.2,15.8,58.3,29.5,89.8,24.9"/>
						<line class="st9" x1="437.5" y1="170.2" x2="437.5" y2="170.2"/>
					</g>
				</g>
			</g>
			<g>
				<g>
					<g>
						<g>
							<path class="st13" d="M378.5,84.5c-0.2,3.7-0.4,7.4-0.6,11.1c0,0.7,0.6,1.3,1.3,1.3c0.7,0,1.2-0.6,1.3-1.3
								c0.2-3.7,0.4-7.4,0.6-11.1c0-0.7-0.6-1.3-1.3-1.3C379,83.3,378.5,83.9,378.5,84.5L378.5,84.5z"/>
						</g>
					</g>
					<g>
						<g>
							<path class="st13" d="M373.4,90.7c3.8,0.9,7.6,0.8,11.4,1c0.7,0,1.3-0.6,1.3-1.3c0-0.7-0.6-1.2-1.3-1.3
								c-3.6-0.2-7.2-0.1-10.8-0.9C372.5,87.9,371.9,90.4,373.4,90.7L373.4,90.7z"/>
						</g>
					</g>
					<g>
						<g>
							<path class="st13" d="M374.5,86.5c2.3,3.2,5.4,5.8,7.9,8.9c0.4,0.5,1.3,0.4,1.8,0c0.5-0.5,0.4-1.2,0-1.8
								c-2.3-2.9-5.3-5.4-7.5-8.4c-0.4-0.5-1.1-0.8-1.7-0.4C374.4,85.1,374.1,85.9,374.5,86.5L374.5,86.5z"/>
						</g>
					</g>
					<g>
						<g>
							<path class="st13" d="M376,94.6c2.8-2.5,5.7-4.9,8.4-7.4c0.5-0.5,0.5-1.3,0-1.8s-1.3-0.5-1.8,0c-2.7,2.6-5.6,5-8.4,7.4
								c-0.5,0.4-0.5,1.3,0,1.8S375.5,95,376,94.6L376,94.6z"/>
						</g>
					</g>
				</g>
				<g>
					<g>
						<g>
							<path class="st13" d="M401.1,135.8c-0.2,3.7-0.4,7.4-0.6,11.1c0,0.7,0.6,1.3,1.3,1.3c0.7,0,1.2-0.6,1.3-1.3
								c0.2-3.7,0.4-7.4,0.6-11.1c0-0.7-0.6-1.3-1.3-1.3S401.2,135.1,401.1,135.8L401.1,135.8z"/>
						</g>
					</g>
					<g>
						<g>
							<path class="st13" d="M396.1,141.9c3.8,0.9,7.6,0.8,11.4,1c0.7,0,1.3-0.6,1.3-1.3s-0.6-1.2-1.3-1.3
								c-3.6-0.2-7.2-0.1-10.8-0.9C395.2,139.2,394.6,141.6,396.1,141.9L396.1,141.9z"/>
						</g>
					</g>
					<g>
						<g>
							<path class="st13" d="M397.2,137.7c2.3,3.2,5.4,5.8,7.9,8.9c0.4,0.5,1.3,0.4,1.8,0c0.5-0.5,0.4-1.2,0-1.8
								c-2.3-2.9-5.3-5.4-7.5-8.4c-0.4-0.5-1.1-0.8-1.7-0.4C397.1,136.3,396.8,137.1,397.2,137.7L397.2,137.7z"/>
						</g>
					</g>
					<g>
						<g>
							<path class="st13" d="M398.7,145.8c2.8-2.5,5.7-4.9,8.4-7.4c0.5-0.5,0.5-1.3,0-1.8s-1.3-0.5-1.8,0c-2.7,2.6-5.6,5-8.4,7.4
								c-0.5,0.4-0.5,1.3,0,1.8C397.4,146.3,398.2,146.3,398.7,145.8L398.7,145.8z"/>
						</g>
					</g>
				</g>
				<g>
					<g>
						<g>
							<path class="st13" d="M352.3,162.4c-0.2,3.7-0.4,7.4-0.6,11.1c0,0.7,0.6,1.3,1.3,1.3c0.7,0,1.2-0.6,1.3-1.3
								c0.2-3.7,0.4-7.4,0.6-11.1c0-0.7-0.6-1.3-1.3-1.3C352.8,161.2,352.3,161.8,352.3,162.4L352.3,162.4z"/>
						</g>
					</g>
					<g>
						<g>
							<path class="st13" d="M347.3,168.6c3.8,0.9,7.6,0.8,11.4,1c0.7,0,1.3-0.6,1.3-1.3s-0.6-1.2-1.3-1.3
								c-3.6-0.2-7.2-0.1-10.8-0.9C346.4,165.8,345.7,168.2,347.3,168.6L347.3,168.6z"/>
						</g>
					</g>
					<g>
						<g>
							<path class="st13" d="M348.3,164.4c2.3,3.2,5.4,5.8,7.9,8.9c0.4,0.5,1.3,0.4,1.8,0c0.5-0.5,0.4-1.2,0-1.8
								c-2.3-2.9-5.3-5.4-7.5-8.4c-0.4-0.5-1.1-0.8-1.7-0.4C348.2,163,347.9,163.8,348.3,164.4L348.3,164.4z"/>
						</g>
					</g>
					<g>
						<g>
							<path class="st13" d="M349.8,172.5c2.8-2.5,5.7-4.9,8.4-7.4c0.5-0.5,0.5-1.3,0-1.8s-1.3-0.5-1.8,0c-2.7,2.6-5.6,5-8.4,7.4
								c-0.5,0.4-0.5,1.3,0,1.8S349.3,172.9,349.8,172.5L349.8,172.5z"/>
						</g>
					</g>
				</g>
			</g>
			<g>
				<g>
					<path class="st1" d="M386,45.9c-4.6-0.1-5,7.2-0.1,7.4C391.1,53.6,391,46,386,45.9"/>
				</g>
				<g>
					<path class="st1" d="M406.5,80.1c-4.6-0.1-5,7.2-0.1,7.4C411.7,87.7,411.5,80.2,406.5,80.1"/>
				</g>
				<g>
					<path class="st1" d="M355.8,134.7c-4.6-0.1-5,7.2-0.1,7.4C360.9,142.4,360.7,134.8,355.8,134.7"/>
				</g>
				<g>
					<path class="st1" d="M418,156.9c-4.6-0.1-5,7.2-0.1,7.4C423.1,164.5,423,157,418,156.9"/>
				</g>
			</g>
			<g>
				<g>
					<path class="st14" d="M399.9,43.3c0.5,0.6,0.7,1.2,0.9,1.8c0.2,0.6,0.2,1.2,0.2,1.8s-0.1,1.2-0.4,1.7c-0.2,0.6-0.5,1.1-1.1,1.7
						c-0.5-0.6-0.7-1.2-0.9-1.8c-0.2-0.6-0.2-1.2-0.2-1.8s0.2-1.2,0.4-1.7C399.1,44.4,399.4,43.8,399.9,43.3z"/>
				</g>
				<g>
					<path class="st14" d="M373.6,70.1c0.5,0.5,0.8,1,1.1,1.6c0.2,0.6,0.3,1.1,0.3,1.7s-0.1,1.2-0.4,1.7c-0.3,0.6-0.6,1.1-1.3,1.5
						c-0.4-0.7-0.5-1.2-0.7-1.7c-0.1-0.5-0.2-1-0.2-1.5s0.1-1,0.3-1.6C372.9,71.2,373.1,70.7,373.6,70.1z"/>
				</g>
				<g>
					<path class="st14" d="M408.3,94.2c0.5,0.5,0.8,1,1,1.6c0.2,0.5,0.3,1.1,0.2,1.6c0,0.5-0.2,1.1-0.4,1.6c-0.3,0.5-0.6,1-1.2,1.4
						c-0.4-0.6-0.6-1.1-0.8-1.7c-0.1-0.5-0.2-1-0.1-1.5c0-0.5,0.1-1,0.3-1.5C407.5,95.2,407.8,94.7,408.3,94.2z"/>
				</g>
				<g>
					<path class="st14" d="M361.9,100.8c0.5,0.7,0.7,1.3,0.8,2c0.1,0.7,0.1,1.3,0.1,2c-0.1,0.6-0.3,1.3-0.5,1.9
						c-0.3,0.6-0.6,1.2-1.3,1.8c-0.4-0.7-0.6-1.4-0.7-2c-0.1-0.7-0.1-1.3,0-1.9s0.2-1.2,0.5-1.8C361,102,361.3,101.4,361.9,100.8z"
						/>
				</g>
				<g>
					<path class="st14" d="M416.5,116.6c0.6,0.6,0.9,1.3,1.1,2s0.2,1.4,0.2,2.1s-0.2,1.4-0.4,2c-0.2,0.7-0.6,1.3-1.1,2
						c-0.5-0.7-0.7-1.4-0.8-2.1c-0.1-0.7-0.2-1.4-0.1-2c0-0.7,0.1-1.3,0.3-2C415.8,118,416,117.4,416.5,116.6z"/>
				</g>
				<g>
					<path class="st14" d="M379.5,131.5c0.5,0.6,0.8,1.1,1,1.7c0.2,0.6,0.3,1.2,0.2,1.8c0,0.6-0.1,1.2-0.3,1.7
						c-0.2,0.6-0.5,1.1-1.1,1.7c-0.5-0.6-0.7-1.2-0.9-1.8c-0.2-0.6-0.2-1.2-0.2-1.7c0-0.6,0.1-1.1,0.3-1.7
						C378.8,132.7,379,132.1,379.5,131.5z"/>
				</g>
				<g>
					<path class="st14" d="M398.6,153.5c0.5,0.6,0.8,1.2,1,1.9c0.2,0.6,0.3,1.3,0.2,1.9c0,0.6-0.1,1.3-0.3,1.9
						c-0.2,0.6-0.5,1.2-1.1,1.8c-0.5-0.6-0.7-1.3-0.9-1.9c-0.2-0.6-0.2-1.2-0.2-1.8s0.1-1.2,0.3-1.8
						C397.9,154.7,398.1,154.1,398.6,153.5z"/>
				</g>
				<g>
					<path class="st14" d="M348,124.6c0.5,0.5,0.8,1.2,0.9,1.8c0.1,0.6,0.1,1.2,0.1,1.8c-0.1,0.6-0.3,1.1-0.6,1.7
						c-0.3,0.5-0.7,1-1.3,1.5c-0.4-0.6-0.6-1.3-0.7-1.8c-0.1-0.6-0.1-1.1,0-1.7c0.1-0.5,0.2-1,0.5-1.6
						C347.2,125.7,347.5,125.2,348,124.6z"/>
				</g>
				<g>
					<path class="st14" d="M369.1,170.2c0.5,0.5,0.7,1,0.9,1.5c0.2,0.5,0.2,1,0.2,1.5s-0.1,1-0.3,1.4c-0.2,0.5-0.5,0.9-1.1,1.4
						c-0.5-0.5-0.7-1-0.9-1.5c-0.2-0.5-0.2-1-0.2-1.5s0.1-1,0.4-1.4C368.3,171.1,368.6,170.6,369.1,170.2z"/>
				</g>
				<g>
					<path class="st14" d="M429.9,154.8c0.6,0.5,0.8,1,1,1.5s0.3,1,0.3,1.6c0,0.5-0.1,1-0.3,1.5c-0.2,0.5-0.5,1-1.1,1.5
						c-0.5-0.5-0.7-1-0.9-1.6c-0.2-0.5-0.2-1-0.2-1.5s0.1-1,0.3-1.5C429.2,155.8,429.4,155.3,429.9,154.8z"/>
				</g>
				<g>
					<path class="st14" d="M390.5,58.7c0.5,0.5,0.7,0.9,0.9,1.3c0.2,0.4,0.2,0.9,0.2,1.3c0,0.4-0.1,0.8-0.3,1.3
						c-0.2,0.4-0.5,0.8-1.1,1.2c-0.5-0.5-0.7-0.9-0.9-1.3c-0.2-0.4-0.2-0.9-0.2-1.3c0-0.4,0.1-0.8,0.3-1.3
						C389.6,59.6,389.9,59.1,390.5,58.7z"/>
				</g>
				<g>
					<path class="st14" d="M407.3,60.9c0.6,0.5,0.8,1,1,1.5s0.3,1,0.2,1.5s-0.1,1-0.3,1.5c-0.2,0.5-0.5,1-1.1,1.5
						c-0.5-0.5-0.7-1-0.9-1.6c-0.2-0.5-0.2-1-0.2-1.5s0.1-1,0.3-1.5C406.6,61.9,406.8,61.4,407.3,60.9z"/>
				</g>
				<g>
					<path class="st14" d="M386.6,36.2c0.5,0.5,0.7,1,0.9,1.5c0.1,0.5,0.2,1,0.1,1.5s-0.2,1-0.5,1.5s-0.7,1-1.3,1.2
						c-0.3-0.6-0.5-1.1-0.6-1.6s-0.1-0.9-0.1-1.4c0.1-0.5,0.2-0.9,0.4-1.4C385.8,37.2,386.1,36.7,386.6,36.2z"/>
				</g>
				<g>
					<path class="st14" d="M392.7,80.2c0.5,0.5,0.8,1.1,1,1.6s0.2,1.1,0.2,1.6s-0.1,1-0.3,1.5c-0.2,0.5-0.4,1-0.8,1.6
						c-0.6-0.4-0.9-1-1.1-1.5s-0.3-1.1-0.3-1.6s0.1-1.1,0.3-1.6C392,81.3,392.3,80.8,392.7,80.2z"/>
				</g>
				<g>
					<path class="st14" d="M377.4,104.9c0.5,0.6,0.7,1.3,0.9,1.9c0.1,0.6,0.2,1.2,0.2,1.9c0,0.6-0.2,1.2-0.4,1.8
						c-0.2,0.6-0.5,1.2-1.1,1.8c-0.5-0.6-0.7-1.3-0.9-1.9c-0.1-0.6-0.2-1.2-0.2-1.9c0-0.6,0.2-1.2,0.4-1.8
						C376.6,106.1,376.9,105.5,377.4,104.9z"/>
				</g>
				<g>
					<path class="st14" d="M403.9,117.3c0.6,0.6,0.8,1.2,1,1.8c0.2,0.6,0.2,1.2,0.2,1.8c0,0.6-0.1,1.2-0.3,1.8
						c-0.2,0.6-0.5,1.2-1.1,1.7c-0.5-0.6-0.7-1.2-0.9-1.8c-0.2-0.6-0.2-1.2-0.2-1.8c0-0.6,0.1-1.2,0.3-1.8
						C403.2,118.5,403.4,118,403.9,117.3z"/>
				</g>
				<g>
					<path class="st14" d="M420.6,138.2c0.5,0.5,0.7,1.1,0.9,1.6c0.2,0.5,0.2,1.1,0.2,1.6s-0.1,1-0.4,1.5c-0.2,0.5-0.5,1-1.1,1.5
						c-0.5-0.6-0.7-1.1-0.9-1.6c-0.2-0.5-0.2-1.1-0.2-1.6s0.1-1,0.4-1.5S420.1,138.7,420.6,138.2z"/>
				</g>
				<g>
					<path class="st14" d="M383.1,147.7c0.5,0.5,0.7,1,0.9,1.5c0.2,0.5,0.2,1,0.2,1.5s-0.1,1-0.3,1.4c-0.2,0.5-0.5,0.9-1.1,1.4
						c-0.5-0.5-0.7-1-0.9-1.5c-0.2-0.5-0.2-1-0.2-1.5s0.1-1,0.4-1.4C382.2,148.7,382.5,148.2,383.1,147.7z"/>
				</g>
				<g>
					<path class="st14" d="M365.6,125.4c0.5,0.6,0.7,1.2,0.8,1.8c0.1,0.6,0.2,1.2,0.1,1.7c0,0.6-0.2,1.2-0.4,1.7
						c-0.2,0.6-0.6,1.1-1.1,1.7c-0.5-0.6-0.7-1.2-0.8-1.8c-0.1-0.6-0.2-1.2-0.1-1.7c0.1-0.6,0.2-1.2,0.4-1.7
						C364.7,126.5,365,125.9,365.6,125.4z"/>
				</g>
				<g>
					<path class="st14" d="M395.2,173.3c0.5,0.5,0.7,1.1,0.8,1.6c0.1,0.5,0.2,1.1,0.1,1.6c0,0.5-0.2,1-0.4,1.5
						c-0.2,0.5-0.6,1-1.1,1.5c-0.5-0.5-0.7-1.1-0.8-1.6c-0.1-0.5-0.2-1.1-0.1-1.6s0.2-1,0.4-1.5S394.6,173.8,395.2,173.3z"/>
				</g>
				<g>
					<path class="st14" d="M416.6,176.1c0.6,0.4,0.9,0.9,1,1.3c0.2,0.5,0.3,0.9,0.3,1.4s-0.1,0.9-0.3,1.3c-0.2,0.4-0.5,0.9-1.1,1.3
						c-0.5-0.5-0.7-0.9-0.9-1.4c-0.2-0.4-0.2-0.9-0.2-1.3c0-0.4,0.1-0.9,0.3-1.3C415.9,177,416.2,176.6,416.6,176.1z"/>
				</g>
				<g>
					<path class="st14" d="M342.5,152.4c0.4,0.8,0.6,1.5,0.7,2.2s0.1,1.4,0,2.1c-0.1,0.7-0.3,1.4-0.6,2c-0.3,0.7-0.7,1.3-1.3,1.9
						c-0.4-0.8-0.6-1.5-0.7-2.2s-0.1-1.4,0-2.1c0.1-0.7,0.3-1.4,0.6-2C341.5,153.7,341.9,153,342.5,152.4z"/>
				</g>
			</g>
			<g>
				<g>
					<path class="st15" d="M364.6,90.3c-3.5-0.1-3.8,5.4-0.1,5.6C368.4,96.1,368.3,90.4,364.6,90.3"/>
				</g>
				<g>
					<path class="st15" d="M388.9,126.7c-3.5-0.1-3.8,5.4-0.1,5.6C392.7,132.5,392.6,126.8,388.9,126.7"/>
				</g>
				<g>
					<path class="st15" d="M399.4,59.9c-3.5-0.1-3.8,5.4-0.1,5.6C403.2,65.7,403.1,60,399.4,59.9"/>
				</g>
				<g>
					<path class="st15" d="M423.4,128.4c-3.5-0.1-3.8,5.4-0.1,5.6C427.2,134.2,427.1,128.5,423.4,128.4"/>
				</g>
				<g>
					<path class="st15" d="M383.6,172.5c-3.5-0.1-3.8,5.4-0.1,5.6C387.4,178.2,387.3,172.6,383.6,172.5"/>
				</g>
				<g>
					<path class="st15" d="M392.5,99.7c-3.5-0.1-3.8,5.4-0.1,5.6C396.4,105.5,396.2,99.8,392.5,99.7"/>
				</g>
				<g>
					<path class="st15" d="M370.5,145.8c-3.5-0.1-3.8,5.4-0.1,5.6C374.4,151.6,374.3,145.9,370.5,145.8"/>
				</g>
			</g>
			<g>
				<g>
					<g>
						<path class="st1" d="M383.7,78c2.4,0,2.4-3.8,0-3.8C381.3,74.2,381.2,78,383.7,78L383.7,78z"/>
					</g>
				</g>
				<g>
					<g>
						<path class="st1" d="M409.7,130c2.4,0,2.4-3.8,0-3.8C407.2,126.3,407.2,130,409.7,130L409.7,130z"/>
					</g>
				</g>
				<g>
					<g>
						<path class="st1" d="M338.4,171.1c2.4,0,2.4-3.8,0-3.8S336,171.1,338.4,171.1L338.4,171.1z"/>
					</g>
				</g>
				<g>
					<g>
						<path class="st1" d="M370.3,137.8c2.4,0,2.4-3.8,0-3.8C367.9,134.1,367.9,137.8,370.3,137.8L370.3,137.8z"/>
					</g>
				</g>
				<g>
					<g>
						<path class="st1" d="M353.2,104.6c2.4,0,2.4-3.8,0-3.8C350.8,100.9,350.8,104.6,353.2,104.6L353.2,104.6z"/>
					</g>
				</g>
				<g>
					<g>
						<path class="st1" d="M397.5,40.4c2.4,0,2.4-3.8,0-3.8C395.1,36.6,395,40.4,397.5,40.4L397.5,40.4z"/>
					</g>
				</g>
				<g>
					<g>
						<path class="st1" d="M399.3,95.7c1.9,0,1.9-3,0-3S397.4,95.7,399.3,95.7L399.3,95.7z"/>
					</g>
				</g>
				<g>
					<g>
						<path class="st1" d="M391,154.2c1.9,0,1.9-3,0-3S389.1,154.2,391,154.2L391,154.2z"/>
					</g>
				</g>
				<g>
					<g>
						<path class="st1" d="M429.1,180.3c1.9,0,1.9-3,0-3C427.1,177.3,427.1,180.3,429.1,180.3L429.1,180.3z"/>
					</g>
				</g>
				<g>
					<g>
						<path class="st1" d="M367.9,110.6c1.9,0,1.9-3,0-3S366,110.6,367.9,110.6L367.9,110.6z"/>
					</g>
				</g>
				<g>
					<g>
						<path class="st1" d="M366.7,72.7c1.9,0,1.9-3,0-3C364.8,69.7,364.8,72.7,366.7,72.7L366.7,72.7z"/>
					</g>
				</g>
				<g>
					<g>
						<path class="st1" d="M420.8,109.7c1.9,0,1.9-3,0-3S418.9,109.7,420.8,109.7L420.8,109.7z"/>
					</g>
				</g>
				<g>
					<g>
						<path class="st1" d="M413.4,152.7c1.9,0,1.9-3,0-3C411.4,149.7,411.4,152.7,413.4,152.7L413.4,152.7z"/>
					</g>
				</g>
				<g>
					<g>
						<path class="st1" d="M395.4,56c1.9,0,1.9-3,0-3S393.5,56,395.4,56L395.4,56z"/>
					</g>
				</g>
				<g>
					<g>
						<path class="st1" d="M375.6,172.3c1.9,0,1.9-3,0-3C373.6,169.3,373.6,172.3,375.6,172.3L375.6,172.3z"/>
					</g>
				</g>
			</g>
		</g>
	</g>
	<g>
		<path class="st3" d="M360.6,183c0-0.3-0.2-0.5-0.5-0.6c-10.9-2.4-21.8-4.8-32.7-7.2c-0.1,0-0.2,0-0.3,0l0,0l0,0
			c-0.2,0.1-0.3,0.2-0.4,0.4c-2,8.3-3.7,16.6-4.7,25.1c0,0.3,0.1,0.6,0.4,0.7c10.4,3.5,21.1,5.7,32,6.9c0.3,0,0.5-0.2,0.6-0.5
			C357.7,199.8,360.3,191.6,360.6,183z"/>
		<path class="st2" d="M340.7,177.5l-7,27.8l7.8,2l5.8-28.6c0.1-0.7-0.3-1.4-1.1-1.5l-4.1-0.6C341.4,176.5,340.8,176.9,340.7,177.5z
			"/>
		<polygon class="st2" points="323.4,184.7 322.1,189.9 358.7,198.2 360.1,192.9 		"/>
		<path class="st2" d="M356.1,170c-2-1.1-4.3-0.9-6.4,0.1c-1.2,0.5-2.2,1.3-3.1,2.2c-0.7,0.6-1.3,1.2-1.9,1.9
			c-0.2,0.2-0.4,0.6-0.7,0.9c-0.4-1.4-1.2-2.8-2-3.7c-1.8-2.3-4.3-4.1-7.2-4.7c-2.3-0.4-4.9,0.3-5.8,2.7c-1.2,3.2,2.2,4.9,4.6,6.1
			c1.6,0.8,3.3,1.5,5.1,2.1c1.4,0.4,3.1,1.1,4.6,1c3.5,0.4,7.3,0.8,10.8,0.5c2.2-0.2,4.3-1.4,4.8-3.7
			C359.3,173.1,357.9,171.1,356.1,170z M338.3,174.4c-1.8-0.6-3.7-1.4-5.3-2.4c-0.7-0.5-2-1.2-1.2-2.1c0.7-0.8,1.9-0.5,2.8-0.3
			c1.4,0.3,2.7,1,3.8,1.8c1.2,0.9,2.3,2,3.2,3.3c0.2,0.3,0.4,0.7,0.6,1C340.9,175.5,339.1,174.7,338.3,174.4z M354.9,176.8
			c-1.8,0.6-4.1,0.1-5.9,0c-0.9,0-1.8-0.1-2.8-0.1c1.2-1.3,2.3-2.7,3.8-3.7c1.4-1,3.2-1.6,4.9-0.8
			C357,173.1,357.5,175.9,354.9,176.8z"/>
	</g>
	<g>
		<path class="st3" d="M327.1,184.1c-0.1-0.2-0.3-0.3-0.5-0.3c-8.7,1.9-17.4,3.8-26.1,5.8c-0.1,0-0.2,0.1-0.2,0.1l0,0l0,0
			c-0.1,0.1-0.2,0.2-0.1,0.4c1.3,6.7,2.9,13.3,5,19.8c0.1,0.3,0.3,0.4,0.6,0.4c8.7-1,17.2-2.9,25.5-5.8c0.2-0.1,0.3-0.3,0.3-0.5
			C330.7,197.2,329.8,190.4,327.1,184.1z"/>
		<path class="st2" d="M310.8,186.8l4.3,22.5l6.3-1.2l-5.4-22.6c-0.1-0.6-0.7-0.9-1.3-0.7l-3.2,0.9
			C311,185.8,310.7,186.3,310.8,186.8z"/>
		<polygon class="st2" points="300.8,197.8 301.6,202 330.9,195.8 330.1,191.5 		"/>
		<path class="st2" d="M319.5,176.2c-1.8-0.1-3.4,0.8-4.6,2.2c-0.6,0.8-1.1,1.7-1.5,2.6c-0.3,0.7-0.5,1.3-0.7,2
			c-0.1,0.2-0.1,0.6-0.2,0.9c-0.8-0.9-1.8-1.6-2.7-2c-2.1-1.1-4.5-1.5-6.8-1c-1.8,0.5-3.5,1.8-3.3,3.9c0.2,2.7,3.3,2.8,5.4,2.9
			c1.5,0,2.9,0,4.4-0.2c1.1-0.1,2.6-0.2,3.7-0.8c2.6-0.9,5.5-1.9,8-3.3c1.6-0.9,2.6-2.5,2.2-4.3
			C322.8,177.4,321.2,176.3,319.5,176.2z M308.1,185.3c-1.5,0.1-3.2,0.3-4.6,0c-0.7-0.1-1.8-0.2-1.5-1.1c0.2-0.8,1.2-1,1.9-1.2
			c1.1-0.2,2.3-0.2,3.4,0c1.2,0.2,2.4,0.7,3.4,1.3c0.3,0.2,0.5,0.3,0.8,0.5C310.3,185.3,308.8,185.3,308.1,185.3z M320.9,181.5
			c-1.1,1-2.9,1.4-4.3,2c-0.7,0.3-1.4,0.6-2,0.8c0.4-1.4,0.7-2.8,1.5-4c0.7-1.2,1.8-2.2,3.3-2.2C321.1,178.1,322.5,180,320.9,181.5z
			"/>
	</g>
	<path class="st1" d="M42.2,211.2H460c0,0-26.3-33-48-23.7s-49.6,24.2-50.3,13.9c-0.8-10.3-33.1-5.5-49.3-3.3
		c-17.3,2.3-141.4,0.4-141.4,0.4s-4.8-13.6-13-11s-47.4,15.2-47.9,12s-71.2,11.7-71.2,11.7"/>
</g>
</svg>
