<?xml version="1.0" encoding="utf-8"?>
<!-- Generator: Adobe Illustrator 23.1.0, SVG Export Plug-In . SVG Version: 6.00 Build 0)  -->
<svg version="1.1" id="Слой_1" xmlns="http://www.w3.org/2000/svg" xmlns:xlink="http://www.w3.org/1999/xlink" x="0px" y="0px"
	 viewBox="0 0 500 130" style="enable-background:new 0 0 500 130;" xml:space="preserve">
<rect style="display:none;" width="500" height="130"/>
<g>
	<path style="fill:#FFFFFF;" d="M54.4000015,58.7000046c3.9000015,1.6999969,7.0999985,4.3000031,9.5,7.8999939
		C66.3000031,70.2000046,67.5,74.3000107,67.5,78.8000107c0,6-2.0999985,11.1000061-6.1999969,15.2999878
		c-4.2000046,4.2999878-9.2000046,6.3999939-15,6.3999939c-2.3000031,0-4.5-0.3999939-6.5999985-1.1000061V31.1999893
		C40.1000061,30.8999863,40.5,30.6999893,41,30.5999832c1.8000031-0.6999969,3.5-1.1000061,5.4000015-1.1000061
		c4,0,7.3000031,1.3999939,10.0999985,4.3000031c2.8000031,2.8999939,4.0999985,6.3000031,4.0999985,10.3999939
		c0,2.6999969-0.6999969,5.1999969-2,7.6000061C57.1999969,54.0999832,55.4000015,55.8999863,53,57.0999832
		c-0.5,0.3000031-0.9000015,0.5-1.4000015,0.6999969C52.5,57.9000168,53.4000015,58.3000107,54.4000015,58.7000046z
		 M42.9000015,31.8000107v25.1999969h3.3000031c3,0,5.5999985-1.3000031,7.6999969-3.8000031
		s3.2000046-5.6000061,3.2000046-9.1000061c0-3.6000061-1.0999985-6.6000061-3.2000046-9.1000061
		c-2.0999985-2.5-4.6999969-3.8000031-7.6999969-3.8000031C45.1000061,31.2000046,43.9000015,31.4000168,42.9000015,31.8000107z
		 M46.2000046,98.8000107c4.9000015,0,9.1999969-2,12.6999969-5.8999939s5.3000031-8.6000061,5.3000031-14.2000122
		c0-5.5-1.8000031-10.2999878-5.2999954-14.1999969c-3.5-3.8999939-7.7000046-5.8999939-12.7000046-5.8999939h-3.2999954v39.6999969
		C43.9000015,98.7000046,45.1000061,98.8000107,46.2000046,98.8000107z"/>
	<path style="fill:#FFFFFF;" d="M76,97.7000046h15.0999985L92.5,99.4000168H72.5999985V30.6000137h19.8000031L91,32.3000107H76
		v23.6999969h13.1999969L88,57.7000046H76V97.7000046z"/>
	<path style="fill:#FFFFFF;" d="M116,97.7000046l1.4000015,1.7000122H97.5999985V30.6000137h3.3000031v67.0999908H116z"/>
	<path style="fill:#FFFFFF;" d="M126.7000046,57.7000046l23.6000137,41.7000122h-3.8000031l-20.7000046-36.5v36.5h-3.3000031
		V30.6000137h3.3000031v25.5l19.5000076-25.5h2L126.7000046,57.7000046z"/>
	<path style="fill:#FFFFFF;" d="M175.5000153,29.5000076l18.3000031,69.9000092h-3.3000031l-6.6999969-25.7999878h-19.8999939
		l-6.6999969,25.7999878h-1.8000183l17.5-66.8999939L175.5000153,29.5000076z M164.4000092,71.9000168h18.8999939l-9.5-36.1999969
		L164.4000092,71.9000168z"/>
	<path style="fill:#FFFFFF;" d="M242.8000031,97.7000046l1.3999939,1.7000122h-19.7999878V30.6000137h3.3000031v67.0999908
		H242.8000031z"/>
	<path style="fill:#FFFFFF;" d="M255.0000153,34.3000107c5.3999786-3.1999969,11.1999969-4.8000031,17.4999847-4.8000031
		s12.1000061,1.6000061,17.3999939,4.8000031s9.6000061,7.5,12.7000122,12.8999939s4.7000122,11.3999939,4.7000122,17.8000031
		s-1.6000061,12.3000031-4.7000122,17.8000031c-3.1000061,5.3999939-7.2999878,9.7999878-12.7000122,12.8999939
		c-5.2999878,3.2000122-11.1000061,4.7999878-17.3999939,4.7999878s-12.1000061-1.6000061-17.4999847-4.7999878
		c-5.3999939-3.2000122-9.6000061-7.5-12.6999969-12.8999939c-3.1000061-5.3999939-4.6000061-11.3999939-4.6000061-17.8000031
		c0-6.3999939,1.5-12.3000031,4.6000061-17.8000031C245.4000092,41.8000107,249.6000061,37.4000168,255.0000153,34.3000107z
		 M281.5,97.0999985c5.5-1.3999939,10.2999878-4.1000061,14.2999878-8.2000122s6.7000122-8.8999939,8-14.6000061
		c1.2999878-5.6000061,1.2000122-11.3000031-0.3999939-17s-4.5-10.6999969-8.7999878-15s-9.2000122-7.3000031-14.7000122-9
		c-5.6000061-1.6000061-11.1000061-1.8000031-16.6000061-0.3999939C257.7999878,34.2999802,253,36.9999924,249,41.0999832
		c-4,4.1000061-6.6999969,8.8999939-8,14.6000061c-1.3000031,5.6000061-1.1999969,11.3000031,0.3999939,16.9999847
		c1.6000061,5.7000122,4.5,10.7000122,8.6999969,15c4.2000122,4.2999878,9.0999908,7.2999878,14.6999969,9
		C270.5,98.3000107,276,98.4000168,281.5,97.0999985z"/>
	<path style="fill:#FFFFFF;" d="M338.5,30.6000137h1.6000061v55.8000031c0,3.8999939-1.3999939,7.2999878-4.1000061,10
		c-2.7000122,2.7999878-6,4.1000061-9.7000122,4.1000061c-2.5,0-4.7999878-0.6000061-6.8999939-1.8999939
		s-3.8999939-3-5.1000061-5.2000122c-1.2999878-2.2000122-1.8999939-4.6000061-1.8999939-7.2000122V30.5000076h3.2999878v55.6999969
		c0,3.5,1.1000061,6.3999939,3.3999939,8.8999939c2.2000122,2.5,4.8999939,3.7000122,8,3.7000122
		c3.2000122,0,5.8999939-1.2000122,8.1000061-3.6000061s3.2999878-5.3999939,3.3999939-8.7999878V30.6000137H338.5z"/>
	<path style="fill:#FFFFFF;" d="M371.3999939,30.6000137H373v68.8000031h-1.1000061l-0.5-1.2000122l-24.6000061-57.8999939
		v59.1000061h-1.7000122V30.6000137h1.1000061l0.6000061,1.1999969l24.6000061,57.8999939V30.6000137z"/>
	<path style="fill:#FFFFFF;" d="M420.8999939,78.9000168l-1.5-1.7000122h15.8999939v14.8999939l-1.2000122,1
		c-2.2999878,1.7999878-4.7000122,3.2999878-7.2000122,4.3999939c-4.3999939,2-9.1000061,3-14,3
		c-6.2000122,0-12-1.6000061-17.3999939-4.7999878c-5.3999939-3.2000122-9.6000061-7.5-12.7000122-12.8999939
		s-4.6000061-11.3999939-4.6000061-17.8000031c0-4.8000031,0.8999939-9.3999939,2.7000122-13.6999969
		c1.7999878-4.3999939,4.2999878-8.1000061,7.3999939-11.3000031s6.7999878-5.6999969,11.1000061-7.6000061
		c4.2999878-1.8999939,8.7999878-2.8000031,13.5-2.8000031c8.5,0,16,2.8000031,22.3999939,8.3999939l-2.1000061,2.6000061
		c-6.3999939-5.6999969-13.8999939-8.5-22.2999878-8.3999939s-15.5,3.1000061-21.3999939,9c-4,4.1000061-6.7000122,9-8,14.6000061
		s-1.2000122,11.2999878,0.3999939,17s4.5,10.7000122,8.7000122,15.1000061
		c5.2000122,5.2000122,11.2999878,8.5,18.2999878,9.7000122s13.5,0.2999878,19.3999939-2.7999878
		c1.2000122-0.5,2.3999939-1.2000122,3.7000122-2.1000061V79.100029h-11.0999756V78.9000168z"/>
	<path style="fill:#FFFFFF;" d="M443.7999878,97.7000046h15.1000061l1.3999939,1.7000122H440.5V30.6000137h19.7999878
		l-1.3999939,1.6999969h-15.1000061v23.6999969H457l-1.2000122,1.6999969h-12V97.7000046z"/>
</g>
</svg>
