<?xml version="1.0" standalone="no"?>
<!DOCTYPE svg PUBLIC "-//W3C//DTD SVG 20010904//EN"
 "http://www.w3.org/TR/2001/REC-SVG-20010904/DTD/svg10.dtd">
<svg version="1.0" xmlns="http://www.w3.org/2000/svg"
 width="700.000000pt" height="700.000000pt" viewBox="0 0 700.000000 700.000000"
 preserveAspectRatio="xMidYMid meet">
<metadata>
Created by potrace 1.14, written by Peter Selinger 2001-2017
</metadata>
<g transform="translate(0.000000,700.000000) scale(0.100000,-0.100000)"
fill="#000000" stroke="none">
<path d="M555 6984 c-210 -41 -415 -213 -504 -422 -54 -128 -51 24 -51 -3062
0 -3086 -3 -2934 51 -3062 91 -214 294 -382 512 -423 68 -13 458 -15 2938 -15
3109 0 2931 -3 3064 53 154 65 286 189 359 339 83 169 76 -102 76 3107 0 3207
6 2943 -76 3109 -96 196 -280 337 -491 378 -110 21 -5771 19 -5878 -2z m4720
-594 c66 -5 139 -13 163 -16 l43 -6 -94 -97 c-291 -300 -477 -695 -533 -1135
-13 -102 -15 -174 -11 -326 6 -176 26 -352 42 -368 10 -11 17 8 109 295 49
153 91 280 93 282 7 10 17 -15 75 -181 180 -523 290 -1015 329 -1476 16 -199
7 -578 -19 -748 -25 -158 -62 -313 -108 -448 -45 -131 -157 -358 -229 -466
-201 -299 -498 -544 -814 -671 l-84 -34 124 -2 c439 -8 973 -37 1229 -68 157
-19 348 -53 369 -65 10 -6 -921 -10 -2458 -10 -1361 0 -2472 2 -2469 5 9 9
347 62 533 84 259 30 401 40 651 48 l222 6 6 61 c13 116 76 203 166 230 21 6
38 14 39 19 1 4 -25 29 -56 56 -300 250 -397 531 -265 774 36 66 147 168 224
206 274 133 542 40 655 -229 l24 -55 -7 55 c-25 205 -140 382 -301 463 -148
73 -288 83 -563 38 -170 -28 -395 -31 -484 -6 -141 38 -198 121 -148 215 22
40 68 66 154 86 67 16 166 66 233 117 112 86 276 249 264 261 -2 2 -58 -7
-124 -20 -151 -31 -405 -43 -513 -24 -84 14 -201 68 -232 107 -38 49 -22 227
35 378 84 223 270 382 523 445 34 9 42 15 42 34 0 32 35 131 64 180 50 85 142
145 227 149 l41 2 37 -86 c78 -179 197 -364 333 -515 l73 -81 520 -299 c286
-164 560 -321 609 -349 257 -144 473 -469 531 -799 19 -109 19 -340 1 -451 -8
-44 -13 -81 -11 -83 5 -6 75 159 94 223 51 174 66 407 36 576 -60 346 -282
677 -630 939 -139 104 -422 389 -523 525 -253 342 -372 699 -317 950 91 411
338 778 679 1007 356 238 848 343 1401 298z"/>
</g>
</svg>
